# xmcd CD database file
#
# Track frame offsets:
#	150
#	12702
#	28868
#	42791
#	54751
#	65446
#	76094
#	89988
#	101296
#	112098
#	124236
#
# Disc length: 1786 seconds
#
# Revision: 0
# Processed by: cddbd v1.5.2PL0 Copyright (c) Steve Scherf et al.
# Submitted via: CDex 1.51
#
DISCID=8f06f80b
DTITLE=Helen Merrill - The Artistry Of Helen Merrill
DYEAR=1964
DGENRE=Jazz
TTITLE0=Quiet Nights
TTITLE1=Careless Love
TTITLE2=Scarlet Ribbons
TTITLE3=The House Of The Rising Sun
TTITLE4=I Left My Heart Behind
TTITLE5=Cannetella
TTITLE6=The River
TTITLE7=Minha Rocca
TTITLE8=Itsuki No Komoriuta
TTITLE9=Forbidden Games
TTITLE10=John Anderson, My Love
EXTD=YEAR: 1964
EXTT0=
EXTT1=
EXTT2=
EXTT3=
EXTT4=
EXTT5=
EXTT6=
EXTT7=
EXTT8=
EXTT9=
EXTT10=
PLAYORDER=
